<svg enable-background="new 0 0 24 24" height="512" viewBox="0 0 24 24" width="512" xmlns="http://www.w3.org/2000/svg"><path d="m13.5 24h-3c-.827 0-1.5-.673-1.5-1.5v-11.5h-5.5c-.827 0-1.5-.673-1.5-1.5v-3c0-.827.673-1.5 1.5-1.5h5.5v-3.5c0-.827.673-1.5 1.5-1.5h3c.827 0 1.5.673 1.5 1.5v3.5h5.5c.827 0 1.5.673 1.5 1.5v3c0 .827-.673 1.5-1.5 1.5h-5.5v11.5c0 .827-.673 1.5-1.5 1.5zm-10-18c-.276 0-.5.224-.5.5v3c0 .276.224.5.5.5h6c.276 0 .5.224.5.5v12c0 .276.224.5.5.5h3c.276 0 .5-.224.5-.5v-12c0-.276.224-.5.5-.5h6c.276 0 .5-.224.5-.5v-3c0-.276-.224-.5-.5-.5h-6c-.276 0-.5-.224-.5-.5v-4c0-.276-.224-.5-.5-.5h-3c-.276 0-.5.224-.5.5v4c0 .276-.224.5-.5.5z"/></svg>