<svg width="312" height="51" viewBox="0 0 312 51" fill="none" xmlns="http://www.w3.org/2000/svg">
<rect width="55.5902" height="51" rx="8" fill="black"/>
<path d="M79.54 37.48C77.8 37.48 76.1 37.29 74.44 36.91C72.8 36.51 71.45 35.98 70.39 35.32L72.67 30.16C73.67 30.74 74.79 31.21 76.03 31.57C77.27 31.91 78.46 32.08 79.6 32.08C80.58 32.08 81.28 31.99 81.7 31.81C82.12 31.61 82.33 31.32 82.33 30.94C82.33 30.5 82.05 30.17 81.49 29.95C80.95 29.73 80.05 29.49 78.79 29.23C77.17 28.89 75.82 28.53 74.74 28.15C73.66 27.75 72.72 27.11 71.92 26.23C71.12 25.33 70.72 24.12 70.72 22.6C70.72 21.28 71.09 20.08 71.83 19C72.57 17.92 73.67 17.07 75.13 16.45C76.61 15.83 78.4 15.52 80.5 15.52C81.94 15.52 83.35 15.68 84.73 16C86.13 16.3 87.36 16.75 88.42 17.35L86.29 22.48C84.23 21.44 82.28 20.92 80.44 20.92C78.62 20.92 77.71 21.36 77.71 22.24C77.71 22.66 77.98 22.98 78.52 23.2C79.06 23.4 79.95 23.62 81.19 23.86C82.79 24.16 84.14 24.51 85.24 24.91C86.34 25.29 87.29 25.92 88.09 26.8C88.91 27.68 89.32 28.88 89.32 30.4C89.32 31.72 88.95 32.92 88.21 34C87.47 35.06 86.36 35.91 84.88 36.55C83.42 37.17 81.64 37.48 79.54 37.48ZM109.194 20.59L102.594 37H95.5738L88.9738 20.59H95.9338L99.2338 29.38L102.774 20.59H109.194ZM110.23 20.59H117.01V37H110.23V20.59ZM113.62 19.27C112.4 19.27 111.41 18.95 110.65 18.31C109.91 17.65 109.54 16.82 109.54 15.82C109.54 14.82 109.91 14 110.65 13.36C111.41 12.7 112.4 12.37 113.62 12.37C114.86 12.37 115.85 12.68 116.59 13.3C117.33 13.92 117.7 14.72 117.7 15.7C117.7 16.74 117.33 17.6 116.59 18.28C115.85 18.94 114.86 19.27 113.62 19.27ZM132.106 36.43C131.086 37.01 129.696 37.3 127.936 37.3C125.636 37.3 123.866 36.75 122.626 35.65C121.386 34.53 120.766 32.86 120.766 30.64V26.44H118.516V21.49H120.766V16.9H127.546V21.49H130.906V26.44H127.546V30.58C127.546 31.08 127.676 31.47 127.936 31.75C128.196 32.03 128.536 32.17 128.956 32.17C129.536 32.17 130.046 32.02 130.486 31.72L132.106 36.43ZM133.814 14.74H140.594V37H133.814V14.74ZM161.87 20.59L155.12 37.33C154.26 39.47 153.19 40.97 151.91 41.83C150.63 42.69 149.06 43.12 147.2 43.12C146.28 43.12 145.35 42.98 144.41 42.7C143.49 42.44 142.76 42.09 142.22 41.65L144.47 37C144.81 37.26 145.19 37.47 145.61 37.63C146.05 37.79 146.47 37.87 146.87 37.87C147.61 37.87 148.17 37.65 148.55 37.21L141.65 20.59H148.61L152 29.38L155.45 20.59H161.87ZM175.436 36.43C174.416 37.01 173.026 37.3 171.266 37.3C168.966 37.3 167.196 36.75 165.956 35.65C164.716 34.53 164.096 32.86 164.096 30.64V26.44H161.846V21.49H164.096V16.9H170.876V21.49H174.236V26.44H170.876V30.58C170.876 31.08 171.006 31.47 171.266 31.75C171.526 32.03 171.866 32.17 172.286 32.17C172.866 32.17 173.376 32.02 173.816 31.72L175.436 36.43ZM183.565 37.3C182.165 37.3 180.785 37.15 179.425 36.85C178.065 36.55 176.965 36.16 176.125 35.68L177.985 31.21C178.745 31.67 179.645 32.03 180.685 32.29C181.725 32.55 182.735 32.68 183.715 32.68C184.495 32.68 185.035 32.62 185.335 32.5C185.655 32.36 185.815 32.16 185.815 31.9C185.815 31.64 185.615 31.46 185.215 31.36C184.835 31.26 184.205 31.16 183.325 31.06C181.985 30.9 180.845 30.7 179.905 30.46C178.965 30.2 178.135 29.71 177.415 28.99C176.715 28.27 176.365 27.24 176.365 25.9C176.365 24.84 176.685 23.89 177.325 23.05C177.965 22.21 178.915 21.54 180.175 21.04C181.455 20.54 182.985 20.29 184.765 20.29C186.005 20.29 187.215 20.41 188.395 20.65C189.595 20.87 190.615 21.2 191.455 21.64L189.595 26.11C188.155 25.31 186.575 24.91 184.855 24.91C183.375 24.91 182.635 25.17 182.635 25.69C182.635 25.95 182.835 26.14 183.235 26.26C183.635 26.36 184.265 26.46 185.125 26.56C186.465 26.72 187.595 26.93 188.515 27.19C189.455 27.45 190.275 27.94 190.975 28.66C191.695 29.38 192.055 30.41 192.055 31.75C192.055 32.77 191.735 33.7 191.095 34.54C190.455 35.38 189.495 36.05 188.215 36.55C186.935 37.05 185.385 37.3 183.565 37.3ZM194.107 20.59H200.887V37H194.107V20.59ZM197.497 19.27C196.277 19.27 195.287 18.95 194.527 18.31C193.787 17.65 193.417 16.82 193.417 15.82C193.417 14.82 193.787 14 194.527 13.36C195.287 12.7 196.277 12.37 197.497 12.37C198.737 12.37 199.727 12.68 200.467 13.3C201.207 13.92 201.577 14.72 201.577 15.7C201.577 16.74 201.207 17.6 200.467 18.28C199.727 18.94 198.737 19.27 197.497 19.27ZM211.243 20.29C214.123 20.29 216.323 20.94 217.843 22.24C219.363 23.52 220.123 25.5 220.123 28.18V37H213.823V34.84C213.043 36.48 211.493 37.3 209.173 37.3C207.873 37.3 206.763 37.08 205.843 36.64C204.943 36.18 204.253 35.57 203.773 34.81C203.313 34.03 203.083 33.16 203.083 32.2C203.083 30.58 203.703 29.35 204.943 28.51C206.183 27.67 208.063 27.25 210.583 27.25H213.313C213.093 25.97 212.063 25.33 210.223 25.33C209.483 25.33 208.733 25.45 207.973 25.69C207.213 25.91 206.563 26.22 206.023 26.62L203.863 22.15C204.803 21.57 205.933 21.12 207.253 20.8C208.593 20.46 209.923 20.29 211.243 20.29ZM211.213 33.22C211.693 33.22 212.123 33.09 212.503 32.83C212.883 32.57 213.163 32.18 213.343 31.66V30.52H211.663C210.283 30.52 209.593 30.98 209.593 31.9C209.593 32.28 209.733 32.6 210.013 32.86C210.313 33.1 210.713 33.22 211.213 33.22ZM238.467 37.3C237.067 37.3 235.687 37.15 234.327 36.85C232.967 36.55 231.867 36.16 231.027 35.68L232.887 31.21C233.647 31.67 234.547 32.03 235.587 32.29C236.627 32.55 237.637 32.68 238.617 32.68C239.397 32.68 239.937 32.62 240.237 32.5C240.557 32.36 240.717 32.16 240.717 31.9C240.717 31.64 240.517 31.46 240.117 31.36C239.737 31.26 239.107 31.16 238.227 31.06C236.887 30.9 235.747 30.7 234.807 30.46C233.867 30.2 233.037 29.71 232.317 28.99C231.617 28.27 231.267 27.24 231.267 25.9C231.267 24.84 231.587 23.89 232.227 23.05C232.867 22.21 233.817 21.54 235.077 21.04C236.357 20.54 237.887 20.29 239.667 20.29C240.907 20.29 242.117 20.41 243.297 20.65C244.497 20.87 245.517 21.2 246.357 21.64L244.497 26.11C243.057 25.31 241.477 24.91 239.757 24.91C238.277 24.91 237.537 25.17 237.537 25.69C237.537 25.95 237.737 26.14 238.137 26.26C238.537 26.36 239.167 26.46 240.027 26.56C241.367 26.72 242.497 26.93 243.417 27.19C244.357 27.45 245.177 27.94 245.877 28.66C246.597 29.38 246.957 30.41 246.957 31.75C246.957 32.77 246.637 33.7 245.997 34.54C245.357 35.38 244.397 36.05 243.117 36.55C241.837 37.05 240.287 37.3 238.467 37.3ZM260.41 20.29C262.43 20.29 264.05 20.9 265.27 22.12C266.51 23.34 267.13 25.18 267.13 27.64V37H260.35V28.81C260.35 26.93 259.68 25.99 258.34 25.99C257.58 25.99 256.96 26.26 256.48 26.8C256.02 27.32 255.79 28.15 255.79 29.29V37H249.01V14.74H255.79V21.91C257.05 20.83 258.59 20.29 260.41 20.29ZM279.037 37.3C277.217 37.3 275.577 36.94 274.117 36.22C272.677 35.48 271.547 34.47 270.727 33.19C269.907 31.89 269.497 30.42 269.497 28.78C269.497 27.14 269.907 25.68 270.727 24.4C271.547 23.1 272.677 22.09 274.117 21.37C275.577 20.65 277.217 20.29 279.037 20.29C280.877 20.29 282.517 20.65 283.957 21.37C285.417 22.09 286.547 23.1 287.347 24.4C288.167 25.68 288.577 27.14 288.577 28.78C288.577 30.42 288.167 31.89 287.347 33.19C286.547 34.47 285.417 35.48 283.957 36.22C282.517 36.94 280.877 37.3 279.037 37.3ZM279.037 32.02C279.817 32.02 280.457 31.74 280.957 31.18C281.457 30.6 281.707 29.8 281.707 28.78C281.707 27.76 281.457 26.97 280.957 26.41C280.457 25.85 279.817 25.57 279.037 25.57C278.257 25.57 277.617 25.85 277.117 26.41C276.617 26.97 276.367 27.76 276.367 28.78C276.367 29.8 276.617 30.6 277.117 31.18C277.617 31.74 278.257 32.02 279.037 32.02ZM301.649 20.29C303.089 20.29 304.409 20.64 305.609 21.34C306.829 22.02 307.789 23.01 308.489 24.31C309.209 25.61 309.569 27.11 309.569 28.81C309.569 30.51 309.209 32.01 308.489 33.31C307.789 34.59 306.829 35.58 305.609 36.28C304.409 36.96 303.089 37.3 301.649 37.3C299.829 37.3 298.439 36.83 297.479 35.89V42.82H290.699V20.59H297.149V21.94C298.129 20.84 299.629 20.29 301.649 20.29ZM300.029 32.02C300.809 32.02 301.449 31.74 301.949 31.18C302.449 30.62 302.699 29.83 302.699 28.81C302.699 27.79 302.449 27 301.949 26.44C301.449 25.86 300.809 25.57 300.029 25.57C299.249 25.57 298.609 25.86 298.109 26.44C297.609 27 297.359 27.79 297.359 28.81C297.359 29.83 297.609 30.62 298.109 31.18C298.609 31.74 299.249 32.02 300.029 32.02Z" fill="black"/>
<g clip-path="url(#clip0)">
<path d="M26.5625 41H30.4375C31.5057 41 32.375 40.1307 32.375 39.0625V24.2083H39.4792C40.5474 24.2083 41.4167 23.339 41.4167 22.2708V18.3958C41.4167 17.3276 40.5474 16.4583 39.4792 16.4583H32.375V11.9375C32.375 10.8693 31.5057 10 30.4375 10H26.5625C25.4943 10 24.625 10.8693 24.625 11.9375V16.4583H17.5208C16.4526 16.4583 15.5833 17.3276 15.5833 18.3958V22.2708C15.5833 23.339 16.4526 24.2083 17.5208 24.2083H24.625V39.0625C24.625 40.1307 25.4943 41 26.5625 41ZM39.4792 17.75C39.8357 17.75 40.125 18.0393 40.125 18.3958V22.2708C40.125 22.6273 39.8357 22.9167 39.4792 22.9167H31.7292C31.3727 22.9167 31.0833 23.206 31.0833 23.5625V39.0625C31.0833 39.419 30.794 39.7083 30.4375 39.7083H26.5625C26.206 39.7083 25.9167 39.419 25.9167 39.0625V23.5625C25.9167 23.206 25.6273 22.9167 25.2708 22.9167H17.5208C17.1643 22.9167 16.875 22.6273 16.875 22.2708V18.3958C16.875 18.0393 17.1643 17.75 17.5208 17.75H25.2708C25.6273 17.75 25.9167 17.4607 25.9167 17.1042V11.9375C25.9167 11.581 26.206 11.2917 26.5625 11.2917H30.4375C30.794 11.2917 31.0833 11.581 31.0833 11.9375V17.1042C31.0833 17.4607 31.3727 17.75 31.7292 17.75H39.4792Z" fill="#FFFEFE"/>
</g>
<defs>
<clipPath id="clip0">
<rect width="31" height="31" fill="white" transform="matrix(-1 0 0 1 44 10)"/>
</clipPath>
</defs>
</svg>
